<?xml version="1.0" encoding="UTF-8"?>
<svg width="80px" height="17px" viewBox="0 0 80 17" version="1.1" xmlns="http://www.w3.org/2000/svg" xmlns:xlink="http://www.w3.org/1999/xlink">
    <title>Group 8</title>
    <defs>
        <polygon id="path-1" points="0.000263157895 0.361578947 28.0197368 0.361578947 28.0197368 14.7367368 0.000263157895 14.7367368"></polygon>
    </defs>
    <g id="Page-1" stroke="none" stroke-width="1" fill="none" fill-rule="evenodd">
        <g id="main" transform="translate(-50.000000, -19.000000)">
            <g id="header">
                <g id="Group-8" transform="translate(50.000000, 19.000000)">
                    <polygon id="Fill-1" fill="#F6B21E" points="12.9765789 0.526210526 12.9765789 14.3846316 17.9634211 7.22147368"></polygon>
                    <g id="Group-7" transform="translate(0.000000, 0.164737)">
                        <g id="Group-4">
                            <mask id="mask-2" fill="white">
                                <use xlink:href="#path-1"></use>
                            </mask>
                            <g id="Clip-3"></g>
                            <path d="M22.5771053,0.361473684 L20.5255263,4.13621053 L18.4202632,0.361473684 L12.9492105,0.361473684 L8.70657895,0.361473684 L8.70657895,9.01305263 C8.70657895,9.01305263 8.67868421,11.1341053 6.50236842,11.1067368 C4.32552632,11.0793684 4.29815789,8.98568421 4.29815789,8.98568421 L4.27078947,0.361473684 L0.000263157895,0.361473684 L0.000263157895,9.20568421 L0.0276315789,9.20568421 C0.0276315789,9.20568421 -0.203421053,11.8651579 2.14921053,13.5872632 C3.24815789,14.3909474 4.785,14.6488421 5.92921053,14.7204211 L7.425,14.7214737 C7.46921053,14.7183158 7.49394737,14.7156842 7.49394737,14.7156842 L7.49342105,14.7214737 L17.7518421,14.7293684 L20.3055263,10.5556842 L22.7234211,14.7330526 L28.0197368,14.7367368 L28.0197368,14.6609474 L22.9776316,7.08463158 L27.5044737,0.361473684 L22.5771053,0.361473684 Z M12.9492105,0.361473684 L17.9634211,7.05726316 L12.9765789,14.2198947 L12.9492105,0.361473684 Z" id="Fill-2" fill="#000000" mask="url(#mask-2)"></path>
                        </g>
                        <path d="M67.3972105,0.393368421 L67.3972105,1.196 L73.1819474,1.196 L73.1819474,14.7207368 L74.1061579,14.7207368 L74.1061579,1.196 L79.8903684,1.196 L79.8903684,0.393368421 L67.3972105,0.393368421 Z M54.7635263,0.393368421 L54.7635263,14.7207368 L55.6882632,14.7207368 L55.6882632,8.19968421 L62.0751053,8.19968421 C63.4940526,8.19968421 64.4577368,8.41968421 64.9677368,8.86126316 C65.4766842,9.30284211 65.7435263,10.1454737 65.7708947,11.3902105 C65.8240526,13.4096842 65.9582632,14.5202105 66.1724737,14.7207368 L67.0966842,14.7207368 C66.8551053,14.2791579 66.7214211,12.9544211 66.6945789,10.7475789 C66.6808947,9.94442105 66.4435263,9.27652632 65.9824737,8.74073684 C65.5198421,8.20652632 64.8603684,7.88494737 64.0035263,7.77810526 L64.0035263,7.73757895 C64.9535263,7.52389474 65.6972105,7.06231579 66.2319474,6.35284211 C66.7014211,5.71126316 66.9361579,4.98863158 66.9361579,4.18652632 C66.9361579,2.78126316 66.4735263,1.77178947 65.5498421,1.156 C64.773,0.647578947 63.6214211,0.393368421 62.0951053,0.393368421 L54.7635263,0.393368421 Z M55.6882632,1.196 L62.1751053,1.196 C64.733,1.196 66.0119474,2.17284211 66.0119474,4.126 C66.0119474,6.30652632 64.6524737,7.39705263 61.9340526,7.39705263 L55.6882632,7.39705263 L55.6882632,1.196 Z M41.7487895,0.393368421 L41.7487895,14.7207368 L53.1972105,14.7207368 L53.1972105,13.9181053 L42.6724737,13.9181053 L42.6724737,7.69757895 L52.6556316,7.69757895 L52.6556316,6.89547368 L42.6724737,6.89547368 L42.6724737,1.196 L53.0777368,1.196 L53.0777368,0.393368421 L41.7487895,0.393368421 Z M28.3519474,0.393368421 L28.3519474,14.7207368 L29.2756316,14.7207368 L29.2756316,8.41968421 L35.683,8.41968421 C37.1961579,8.41968421 38.3408947,8.046 39.1177368,7.296 C39.8272105,6.60073684 40.1819474,5.62389474 40.1819474,4.36652632 C40.1819474,1.71810526 38.7287895,0.393368421 35.8235263,0.393368421 L28.3519474,0.393368421 Z M29.2756316,1.196 L35.4419474,1.196 C36.4998421,1.196 37.2898421,1.32968421 37.8119474,1.59705263 C38.7761579,2.07915789 39.2582632,3.01547368 39.2582632,4.40652632 C39.2582632,6.54705263 38.0598421,7.61757895 35.663,7.61757895 L29.2756316,7.61757895 L29.2756316,1.196 Z" id="Fill-5" fill="#000000"></path>
                    </g>
                </g>
            </g>
        </g>
    </g>
</svg>